<svg xmlns="http://www.w3.org/2000/svg" viewBox="0 0 256 256" role="img" aria-labelledby="title desc">
  <title id="title">MyMoney app icon</title>
  <desc id="desc">Biểu tượng ứng dụng MyMoney</desc>
  <defs>
    <linearGradient id="bg" x1="36" y1="24" x2="220" y2="236" gradientUnits="userSpaceOnUse">
      <stop offset="0" stop-color="#258d7d"/>
      <stop offset=".62" stop-color="#16645a"/>
      <stop offset="1" stop-color="#0f4d45"/>
    </linearGradient>
    <filter id="shadow" x="-20%" y="-20%" width="140%" height="140%" color-interpolation-filters="sRGB">
      <feDropShadow dx="0" dy="12" stdDeviation="16" flood-color="#073c35" flood-opacity=".32"/>
    </filter>
  </defs>
  <rect width="256" height="256" rx="56" fill="url(#bg)"/>
  <path d="M62 93c0-15.5 12.5-28 28-28h76c15.5 0 28 12.5 28 28v70c0 15.5-12.5 28-28 28H90c-15.5 0-28-12.5-28-28V93Z" fill="#fff" filter="url(#shadow)"/>
  <path d="M161 102h41v52h-41a26 26 0 1 1 0-52Z" fill="#0f4d45"/>
  <circle cx="161" cy="128" r="10" fill="#f4c44b"/>
  <path d="M86 158V96h17.5l24.5 29 24.5-29H170v62h-18.5v-32.5l-18.7 21.4h-9.6l-18.7-21.4V158H86Z" fill="#0f4d45"/>
  <path d="M89 184h78" stroke="#f4c44b" stroke-width="12" stroke-linecap="round"/>
  <path d="M76 54c18-13 38-20 61-20 16 0 30 3 44 10" stroke="#ffffff" stroke-width="9" stroke-linecap="round" opacity=".38"/>
</svg>
