<svg xmlns="http://www.w3.org/2000/svg" viewBox="0 0 64 64" role="img" aria-labelledby="title">
  <title id="title">MyMoney mark</title>
  <defs>
    <linearGradient id="g" x1="10" y1="8" x2="54" y2="58" gradientUnits="userSpaceOnUse">
      <stop offset="0" stop-color="#1f8a78"/>
      <stop offset="1" stop-color="#0f4d45"/>
    </linearGradient>
  </defs>
  <rect width="64" height="64" rx="16" fill="url(#g)"/>
  <path d="M16 23.5c0-3 2.4-5.5 5.5-5.5h21c3 0 5.5 2.4 5.5 5.5v17c0 3-2.4 5.5-5.5 5.5h-21c-3 0-5.5-2.4-5.5-5.5v-17Z" fill="#fff" opacity=".96"/>
  <path d="M40 25h9v14h-9a7 7 0 1 1 0-14Z" fill="#0f4d45"/>
  <circle cx="40" cy="32" r="2.7" fill="#f4c44b"/>
  <path d="M22 39V25h4.2l5.8 7 5.8-7H42v14h-4.5v-7.4l-4.3 5h-2.4l-4.3-5V39H22Z" fill="#0f4d45"/>
  <path d="M22 45h20" stroke="#f4c44b" stroke-width="3" stroke-linecap="round"/>
</svg>
